<svg width="712" height="95" viewBox="0 0 712 95" fill="none" xmlns="http://www.w3.org/2000/svg">
<path d="M4.02659 95C2.62604 95 1.6048 94.6798 0.96288 94.0395C0.32096 93.3992 0 92.3805 0 90.9835V34.4026C0 33.6458 0.0875345 33.0055 0.262604 32.4816C0.496029 31.9577 0.816989 31.5211 1.22548 31.1719L12.5174 21.6544C12.8092 21.4216 13.1885 21.2469 13.6554 21.1305C14.1806 20.9559 14.735 20.8686 15.3186 20.8686H43.2421C49.3111 20.8686 53.7754 22.0619 56.6349 24.4485C59.4943 26.777 60.9241 30.3278 60.9241 35.1011V39.2923C60.9241 41.3297 60.6323 43.076 60.0487 44.5312C59.5235 45.9865 58.7065 47.1507 57.5977 48.0239L57.3351 48.1985C60.4864 48.8971 62.8498 50.4105 64.4254 52.739C66.0011 55.0092 66.7889 58.1817 66.7889 62.2564V70.2895C66.7889 72.909 66.4096 75.1792 65.6509 77.1002C64.8923 78.9629 63.7543 80.5346 62.2371 81.8153L50.9451 91.3327C49.4862 92.5552 47.648 93.4574 45.4304 94.0395C43.2129 94.6798 40.616 95 37.6399 95H4.02659ZM48.9318 84.6094C54.7091 84.6094 58.9691 83.4452 61.7119 81.1167C64.513 78.7883 65.9135 75.1792 65.9135 70.2895V62.2564C65.9135 58.007 65.009 54.7763 63.2 52.5643C61.3909 50.3523 58.619 49.0717 54.8842 48.7224C56.6349 47.9657 57.9187 46.8306 58.7357 45.3171C59.611 43.7454 60.0487 41.7371 60.0487 39.2923V35.1011C60.0487 30.5607 58.6773 27.2135 55.9346 25.0597C53.1918 22.8477 48.961 21.7417 43.2421 21.7417H15.3186C14.2098 21.7417 13.3928 22.0037 12.8676 22.5276C12.4007 22.9933 12.1673 23.7791 12.1673 24.8851V81.466C12.1673 82.572 12.4007 83.3869 12.8676 83.9108C13.3928 84.3765 14.2098 84.6094 15.3186 84.6094H48.9318ZM45.4304 76.7509H21.8836V29.6002H39.6532C42.0458 29.6002 44.0007 29.8621 45.518 30.386C47.0352 30.8517 48.2024 31.5211 49.0194 32.3943C49.8363 33.2092 50.3907 34.1697 50.6825 35.2757C50.9743 36.3817 51.1202 37.5751 51.1202 38.8557V44.4439C51.1202 46.1903 50.7992 47.7911 50.1573 49.2463C49.5737 50.7016 48.0273 51.7494 45.518 52.3897C47.9106 52.3897 49.8655 52.6517 51.3828 53.1756C52.9001 53.6412 54.0672 54.3398 54.8842 55.2711C55.7012 56.1443 56.2264 57.1921 56.4598 58.4145C56.7516 59.6369 56.8975 60.9758 56.8975 62.4311V68.0193C56.8975 69.2999 56.7516 70.4933 56.4598 71.5993C56.168 72.6471 55.6136 73.5493 54.7966 74.3061C54.038 75.0628 52.9001 75.674 51.3828 76.1397C49.8655 76.5472 47.8814 76.7509 45.4304 76.7509ZM39.6532 30.4733H22.759V52.3897H39.6532C42.0458 52.3897 43.9424 52.186 45.3429 51.7785C46.7435 51.3128 47.7939 50.7307 48.4942 50.0322C49.2528 49.2754 49.7196 48.4314 49.8947 47.5C50.1281 46.5104 50.2448 45.4917 50.2448 44.4439V38.8557C50.2448 36.5273 49.5737 34.5481 48.2315 32.9182C46.8893 31.2883 44.0299 30.4733 39.6532 30.4733ZM31.8626 36.5855H39.303C40.4118 36.5855 41.2288 36.8765 41.754 37.4586C42.3375 38.0407 42.6293 38.9139 42.6293 40.0781V42.523C42.6293 43.6872 42.3375 44.5604 41.754 45.1425C41.2288 45.7246 40.4118 46.0156 39.303 46.0156H31.8626V36.5855ZM45.518 53.2629H22.759V75.8778H45.4304C49.8072 75.8778 52.6666 75.1792 54.0088 73.7822C55.351 72.3269 56.0221 70.4059 56.0221 68.0193V62.4311C56.0221 59.8116 55.351 57.6287 54.0088 55.8824C52.725 54.136 49.8947 53.2629 45.518 53.2629ZM31.8626 59.4623H43.2421C44.3508 59.4623 45.1678 59.7534 45.693 60.3355C46.2766 60.8594 46.5684 61.7034 46.5684 62.8676V66.273C46.5684 67.4372 46.2766 68.3104 45.693 68.8925C45.1678 69.4746 44.3508 69.7656 43.2421 69.7656H31.8626V59.4623Z" fill="black"/>
<path d="M112.149 95H74.8591C73.4586 95 72.4374 94.6798 71.7954 94.0395C71.1535 93.3992 70.8326 92.3805 70.8326 90.9835V80.5928C70.8326 79.8361 70.9201 79.1958 71.0952 78.6719C71.3286 78.148 71.6495 77.7114 72.058 77.3621L82.6497 68.4559V48.9844H74.8591C73.4586 48.9844 72.4374 48.6642 71.7954 48.0239C71.1535 47.3836 70.8326 46.3649 70.8326 44.9678V34.4026C70.8326 33.6458 70.9201 33.0055 71.0952 32.4816C71.3286 31.9577 71.6495 31.5211 72.058 31.1719L82.6497 22.2656V13.534C82.6497 12.7773 82.7373 12.1369 82.9123 11.6131C83.1458 11.0892 83.4667 10.6526 83.8752 10.3033L95.1672 0.785846C95.4589 0.553002 95.8383 0.37837 96.3051 0.26195C96.8303 0.0873168 97.3847 0 97.9683 0H111.799C113.199 0 114.221 0.320159 114.862 0.960476C115.504 1.6008 115.825 2.61949 115.825 4.01654V15.1057C115.825 15.8624 115.709 16.5028 115.475 17.0267C115.3 17.5506 115.008 17.9871 114.6 18.3364L111.536 20.8686H123.441C124.841 20.8686 125.863 21.1887 126.505 21.829C127.146 22.4694 127.467 23.4881 127.467 24.8851V35.4504C127.467 36.2071 127.351 36.8474 127.117 37.3713C126.942 37.8952 126.65 38.3318 126.242 38.6811L115.825 47.4127V67.0588H123.441C124.841 67.0588 125.863 67.379 126.505 68.0193C127.146 68.6596 127.467 69.6783 127.467 71.0754V81.466C127.467 82.2227 127.351 82.8631 127.117 83.3869C126.942 83.9108 126.65 84.3474 126.242 84.6967L114.862 94.1268C114.629 94.3597 114.25 94.5634 113.725 94.7381C113.258 94.9127 112.732 95 112.149 95ZM111.799 18.2491C112.908 18.2491 113.695 18.0162 114.162 17.5506C114.687 17.0267 114.95 16.2117 114.95 15.1057V4.01654C114.95 2.91054 114.687 2.12469 114.162 1.65901C113.695 1.13511 112.908 0.873161 111.799 0.873161H97.9683C96.8595 0.873161 96.0425 1.13511 95.5173 1.65901C95.0505 2.12469 94.817 2.91054 94.817 4.01654V15.1057C94.817 16.2117 95.0505 17.0267 95.5173 17.5506C96.0425 18.0162 96.8595 18.2491 97.9683 18.2491H111.799ZM105.321 12.1369H104.446V6.98529H105.321V12.1369ZM86.1511 84.6094H123.441C124.55 84.6094 125.337 84.3765 125.804 83.9108C126.329 83.3869 126.592 82.572 126.592 81.466V71.0754C126.592 69.9694 126.329 69.1835 125.804 68.7178C125.337 68.1939 124.55 67.932 123.441 67.932H114.95V38.5938H123.441C124.55 38.5938 125.337 38.3609 125.804 37.8952C126.329 37.3713 126.592 36.5564 126.592 35.4504V24.8851C126.592 23.7791 126.329 22.9933 125.804 22.5276C125.337 22.0037 124.55 21.7417 123.441 21.7417H86.1511C85.0423 21.7417 84.2253 22.0037 83.7001 22.5276C83.2333 22.9933 82.9999 23.7791 82.9999 24.8851V35.4504C82.9999 36.5564 83.2333 37.3713 83.7001 37.8952C84.2253 38.3609 85.0423 38.5938 86.1511 38.5938H94.817V67.932H86.1511C85.0423 67.932 84.2253 68.1939 83.7001 68.7178C83.2333 69.1835 82.9999 69.9694 82.9999 71.0754V81.466C82.9999 82.572 83.2333 83.3869 83.7001 83.9108C84.2253 84.3765 85.0423 84.6094 86.1511 84.6094ZM118.714 76.7509H90.878V75.8778H104.446V30.4733H90.878V29.6002H118.714V30.4733H105.321V75.8778H118.714V76.7509Z" fill="black"/>
<path d="M182.534 95H137.978C136.578 95 135.557 94.6798 134.915 94.0395C134.273 93.3992 133.952 92.3805 133.952 90.9835V34.4026C133.952 33.6458 134.039 33.0055 134.214 32.4816C134.448 31.9577 134.769 31.5211 135.177 31.1719L146.469 21.6544C146.761 21.4216 147.14 21.2469 147.607 21.1305C148.132 20.9559 148.687 20.8686 149.27 20.8686H162.838C164.239 20.8686 165.26 21.1887 165.902 21.829C166.544 22.4694 166.865 23.4881 166.865 24.8851V60.4228L167.04 60.2482L178.332 50.7307C178.624 50.4979 179.003 50.3232 179.47 50.2068C179.995 50.0322 180.549 49.9449 181.133 49.9449H193.825C195.226 49.9449 196.247 50.265 196.889 50.9053C197.531 51.5456 197.852 52.5643 197.852 53.9614V81.466C197.852 82.2227 197.735 82.8631 197.502 83.3869C197.327 83.9108 197.035 84.3474 196.627 84.6967L185.247 94.1268C185.014 94.3597 184.634 94.5634 184.109 94.7381C183.642 94.9127 183.117 95 182.534 95ZM193.825 84.6094C194.934 84.6094 195.722 84.3765 196.189 83.9108C196.714 83.3869 196.977 82.572 196.977 81.466V53.9614C196.977 52.8554 196.714 52.0695 196.189 51.6039C195.722 51.08 194.934 50.818 193.825 50.818H181.133C180.024 50.818 179.207 51.08 178.682 51.6039C178.215 52.0695 177.982 52.8554 177.982 53.9614V68.1066H165.989V24.8851C165.989 23.7791 165.727 22.9933 165.202 22.5276C164.735 22.0037 163.947 21.7417 162.838 21.7417H149.27C148.162 21.7417 147.345 22.0037 146.819 22.5276C146.353 22.9933 146.119 23.7791 146.119 24.8851V81.466C146.119 82.572 146.353 83.3869 146.819 83.9108C147.345 84.3765 148.162 84.6094 149.27 84.6094H193.825ZM155.66 76.7509V29.6002H156.536V75.8778H186.998V58.6765H187.873V76.7509H155.66Z" fill="black"/>
<path d="M248.74 95H235.173C233.772 95 232.751 94.6798 232.109 94.0395C231.467 93.3992 231.146 92.3805 231.146 90.9835V34.4026C231.146 33.6458 231.233 33.0055 231.409 32.4816C231.642 31.9577 231.963 31.5211 232.371 31.1719L243.663 21.6544C243.955 21.4216 244.335 21.2469 244.801 21.1305C245.327 20.9559 245.881 20.8686 246.464 20.8686H273.25C277.393 20.8686 280.866 21.3051 283.667 22.1783C286.468 23.0515 288.685 24.2739 290.319 25.8456C291.953 27.4173 293.091 29.3091 293.733 31.5211C294.433 33.7331 294.784 36.1489 294.784 38.7684V49.9449C294.784 52.739 294.375 55.3002 293.558 57.6287C292.799 59.8989 291.457 61.849 289.532 63.4789L278.152 72.909C276.693 74.1314 274.797 75.1501 272.462 75.9651C270.186 76.7218 267.385 77.1584 264.059 77.2748V81.466C264.059 82.2227 263.942 82.8631 263.709 83.3869C263.534 83.9108 263.242 84.3474 262.833 84.6967L251.454 94.1268C251.221 94.3597 250.841 94.5634 250.316 94.7381C249.849 94.9127 249.324 95 248.74 95ZM260.032 84.6094C261.141 84.6094 261.929 84.3765 262.396 83.9108C262.921 83.3869 263.184 82.572 263.184 81.466V66.9715H273.25C281.187 66.9715 286.614 65.3998 289.532 62.2564C292.449 59.1131 293.908 55.0092 293.908 49.9449V38.7684C293.908 33.704 292.449 29.6002 289.532 26.4568C286.614 23.3134 281.187 21.7417 273.25 21.7417H246.464C245.356 21.7417 244.539 22.0037 244.014 22.5276C243.547 22.9933 243.313 23.7791 243.313 24.8851V81.466C243.313 82.572 243.547 83.3869 244.014 83.9108C244.539 84.3765 245.356 84.6094 246.464 84.6094H260.032ZM272.025 59.5496H253.992V76.7509H253.117V29.6002H272.025C274.767 29.6002 276.985 29.9203 278.677 30.5607C280.428 31.1428 281.77 31.9577 282.704 33.0055C283.638 34.0533 284.279 35.3048 284.63 36.7601C284.98 38.2154 285.155 39.7871 285.155 41.4752V47.9366C285.155 49.6247 284.98 51.1964 284.63 52.6517C284.279 54.0487 283.638 55.2711 282.704 56.3189C281.77 57.3085 280.428 58.0944 278.677 58.6765C276.985 59.2586 274.767 59.5496 272.025 59.5496ZM253.992 58.6765H272.025C274.592 58.6765 276.664 58.4145 278.24 57.8906C279.874 57.3667 281.128 56.6391 282.004 55.7077C282.879 54.7181 283.462 53.583 283.754 52.3024C284.104 50.9635 284.279 49.5083 284.279 47.9366V41.4752C284.279 39.9035 284.104 38.4482 283.754 37.1094C283.462 35.7705 282.879 34.6063 282.004 33.6167C281.128 32.6271 279.874 31.8704 278.24 31.3465C276.664 30.7644 274.592 30.4733 272.025 30.4733H253.992V58.6765ZM263.009 38.0699H270.887C272.579 38.0699 273.688 38.5064 274.213 39.3796C274.738 40.2528 275.001 41.2423 275.001 42.3483V46.9761C275.001 48.0821 274.738 49.0717 274.213 49.9449C273.688 50.818 272.579 51.2546 270.887 51.2546H263.009V38.0699Z" fill="black"/>
<path d="M348.199 95H303.644C302.244 95 301.223 94.6798 300.581 94.0395C299.939 93.3992 299.618 92.3805 299.618 90.9835V34.4026C299.618 33.6458 299.705 33.0055 299.88 32.4816C300.114 31.9577 300.435 31.5211 300.843 31.1719L312.135 21.6544C312.427 21.4216 312.806 21.2469 313.273 21.1305C313.798 20.9559 314.353 20.8686 314.936 20.8686H328.504C329.905 20.8686 330.926 21.1887 331.568 21.829C332.21 22.4694 332.531 23.4881 332.531 24.8851V60.4228L332.706 60.2482L343.998 50.7307C344.29 50.4979 344.669 50.3232 345.136 50.2068C345.661 50.0322 346.215 49.9449 346.799 49.9449H359.491C360.892 49.9449 361.913 50.265 362.555 50.9053C363.197 51.5456 363.518 52.5643 363.518 53.9614V81.466C363.518 82.2227 363.401 82.8631 363.168 83.3869C362.993 83.9108 362.701 84.3474 362.293 84.6967L350.913 94.1268C350.68 94.3597 350.3 94.5634 349.775 94.7381C349.308 94.9127 348.783 95 348.199 95ZM359.491 84.6094C360.6 84.6094 361.388 84.3765 361.855 83.9108C362.38 83.3869 362.643 82.572 362.643 81.466V53.9614C362.643 52.8554 362.38 52.0695 361.855 51.6039C361.388 51.08 360.6 50.818 359.491 50.818H346.799C345.69 50.818 344.873 51.08 344.348 51.6039C343.881 52.0695 343.648 52.8554 343.648 53.9614V68.1066H331.655V24.8851C331.655 23.7791 331.393 22.9933 330.868 22.5276C330.401 22.0037 329.613 21.7417 328.504 21.7417H314.936C313.828 21.7417 313.011 22.0037 312.485 22.5276C312.019 22.9933 311.785 23.7791 311.785 24.8851V81.466C311.785 82.572 312.019 83.3869 312.485 83.9108C313.011 84.3765 313.828 84.6094 314.936 84.6094H359.491ZM321.326 76.7509V29.6002H322.202V75.8778H352.664V58.6765H353.539V76.7509H321.326Z" fill="black"/>
<path d="M390.209 58.1526V60.8594H424.348V58.1526C424.348 56.5809 424.202 55.1256 423.91 53.7868C423.677 52.4479 423.356 51.1964 422.947 50.0322L416.907 35.7996C416.265 34.2861 415.594 33.0346 414.894 32.045C414.194 30.9972 413.027 30.4733 411.393 30.4733H402.814C401.064 30.4733 399.838 30.9972 399.138 32.045C398.438 33.0346 397.796 34.257 397.212 35.7123L391.61 50.0322C391.201 51.1964 390.851 52.4479 390.559 53.7868C390.326 55.1256 390.209 56.5809 390.209 58.1526ZM404.215 40.0781C404.448 39.5542 404.682 39.1759 404.915 38.943C405.207 38.7102 405.528 38.5938 405.878 38.5938H408.066C408.416 38.5938 408.708 38.7102 408.942 38.943C409.233 39.1759 409.496 39.5542 409.729 40.0781L413.844 53.3502H400.101L404.215 40.0781ZM424.348 76.7509V61.7325H390.209V76.7509H389.334V58.1526C389.334 56.5227 389.451 55.0383 389.684 53.6995C389.976 52.3024 390.355 50.9635 390.822 49.6829L396.424 35.3631C397.066 33.7332 397.796 32.3652 398.613 31.2592C399.43 30.1532 400.83 29.6002 402.814 29.6002H411.393C413.318 29.6002 414.661 30.1532 415.419 31.2592C416.236 32.3652 416.995 33.7623 417.695 35.4504L423.735 49.6829C424.202 50.9635 424.552 52.3024 424.785 53.6995C425.077 55.0383 425.223 56.5227 425.223 58.1526V76.7509H424.348ZM399.225 81.466V69.2417H414.719V81.466C414.719 82.572 414.982 83.3869 415.507 83.9108C416.09 84.3765 416.966 84.6094 418.133 84.6094H431.35C432.459 84.6094 433.247 84.3765 433.714 83.9108C434.239 83.3869 434.502 82.572 434.502 81.466V58.4145C434.502 56.6682 434.21 54.6599 433.626 52.3897C433.101 50.1195 432.255 47.4709 431.088 44.4439L423.472 24.6232C423.122 23.6336 422.568 22.9059 421.809 22.4403C421.109 21.9746 420.204 21.7417 419.096 21.7417H395.549C394.382 21.7417 393.419 21.9746 392.66 22.4403C391.96 22.9059 391.435 23.6336 391.085 24.6232L383.469 44.4439C382.302 47.4709 381.427 50.1195 380.843 52.3897C380.318 54.6599 380.055 56.6682 380.055 58.4145V81.466C380.055 82.572 380.289 83.3869 380.756 83.9108C381.281 84.3765 382.098 84.6094 383.207 84.6094H396.074C397.183 84.6094 397.971 84.3765 398.438 83.9108C398.963 83.3869 399.225 82.572 399.225 81.466ZM387.496 94.1268C387.262 94.3597 386.883 94.5634 386.358 94.7381C385.891 94.9127 385.366 95 384.782 95H371.915C370.514 95 369.493 94.6798 368.851 94.0395C368.209 93.3992 367.888 92.3805 367.888 90.9835V67.932C367.888 66.1274 368.151 64.0901 368.676 61.8199C369.259 59.4914 370.164 56.7555 371.389 53.6121L378.917 33.8787C379.092 33.3548 379.297 32.9182 379.53 32.5689C379.822 32.1615 380.114 31.8122 380.405 31.5211L380.493 31.4338L391.697 22.091C392.164 21.6835 392.719 21.3925 393.361 21.2178C394.002 20.985 394.732 20.8686 395.549 20.8686H419.096C420.438 20.8686 421.517 21.1596 422.334 21.7417C423.21 22.2656 423.852 23.1097 424.26 24.2739L431.876 44.0947C433.101 47.2381 433.977 49.974 434.502 52.3024C435.085 54.5726 435.377 56.61 435.377 58.4145V81.466C435.377 82.2227 435.26 82.8631 435.027 83.3869C434.852 83.9108 434.56 84.3474 434.152 84.6967L422.772 94.1268C422.539 94.3597 422.159 94.5634 421.634 94.7381C421.167 94.9127 420.642 95 420.059 95H406.841C405.382 95 404.302 94.6507 403.602 93.9522C402.902 93.3119 402.552 92.3223 402.552 90.9835V79.6323H400.101V81.466C400.101 82.2227 399.984 82.8631 399.751 83.3869C399.575 83.9108 399.284 84.3474 398.875 84.6967L387.496 94.1268Z" fill="black"/>
<path d="M464.445 76.7509H463.57V29.6002H464.445V52.8263H483.44L493.507 29.6002H494.47L484.403 52.8263H487.992C491.552 52.8263 494.207 53.4957 495.958 54.8346C497.709 56.1734 498.584 58.3563 498.584 61.3833V76.7509H497.709V61.3833C497.709 58.5892 496.892 56.61 495.258 55.4458C493.624 54.2816 491.202 53.6995 487.992 53.6995H464.445V76.7509ZM470.748 84.6094C471.857 84.6094 472.644 84.3765 473.111 83.9108C473.637 83.3869 473.899 82.572 473.899 81.466V61.4706H485.454C486.387 61.4706 487.088 61.7325 487.555 62.2564C488.021 62.7803 488.255 63.508 488.255 64.4393V81.466C488.255 82.572 488.488 83.3869 488.955 83.9108C489.48 84.3765 490.297 84.6094 491.406 84.6094H504.886C505.995 84.6094 506.783 84.3765 507.25 83.9108C507.775 83.3869 508.038 82.572 508.038 81.466V56.8428C508.038 53.3502 507.046 50.5561 505.061 48.4605C503.136 46.3067 500.539 45.1425 497.271 44.9678L506.199 24.6232C506.608 23.6918 506.637 22.9933 506.287 22.5276C505.937 22.0037 505.266 21.7417 504.274 21.7417H490.793C489.685 21.7417 488.78 21.9746 488.08 22.4403C487.379 22.8477 486.825 23.5754 486.417 24.6232L477.401 44.9678H473.899V24.8851C473.899 23.7791 473.637 22.9933 473.111 22.5276C472.644 22.0037 471.857 21.7417 470.748 21.7417H457.18C456.071 21.7417 455.254 22.0037 454.729 22.5276C454.262 22.9933 454.029 23.7791 454.029 24.8851V81.466C454.029 82.572 454.262 83.3869 454.729 83.9108C455.254 84.3765 456.071 84.6094 457.18 84.6094H470.748ZM473.549 84.6967L462.17 94.1268C461.936 94.3597 461.557 94.5634 461.032 94.7381C460.565 94.9127 460.039 95 459.456 95H445.888C444.488 95 443.466 94.6798 442.824 94.0395C442.182 93.3992 441.861 92.3805 441.861 90.9835V34.4026C441.861 33.6458 441.949 33.0055 442.124 32.4816C442.358 31.9577 442.678 31.5211 443.087 31.1719L454.379 21.6544C454.671 21.4216 455.05 21.2469 455.517 21.1305C456.042 20.9559 456.596 20.8686 457.18 20.8686H470.748C472.148 20.8686 473.17 21.1887 473.812 21.829C474.454 22.4694 474.775 23.4881 474.775 24.8851V32.8309C474.95 32.598 475.125 32.3652 475.3 32.1324C475.475 31.8413 475.679 31.6085 475.912 31.4338L487.204 21.9164C487.613 21.5671 488.109 21.3051 488.692 21.1305C489.334 20.9559 490.035 20.8686 490.793 20.8686H504.274C505.733 20.8686 506.695 21.2469 507.162 22.0037C507.629 22.7022 507.571 23.6918 506.987 24.9724L498.584 44.182C501.735 44.5895 504.244 45.9283 506.112 48.1985C507.979 50.4687 508.913 53.3502 508.913 56.8428V81.466C508.913 82.2227 508.796 82.8631 508.563 83.3869C508.388 83.9108 508.096 84.3474 507.688 84.6967L496.308 94.1268C496.075 94.3597 495.695 94.5634 495.17 94.7381C494.703 94.9127 494.178 95 493.594 95H480.114C478.714 95 477.692 94.6798 477.05 94.0395C476.408 93.3992 476.088 92.3805 476.088 90.9835V73.9568C476.088 73.3747 475.971 72.909 475.737 72.5597C475.504 72.2105 475.183 72.0067 474.775 71.9485V81.466C474.775 82.2227 474.658 82.8631 474.424 83.3869C474.249 83.9108 473.958 84.3474 473.549 84.6967Z" fill="black"/>
<path d="M536.898 58.1526V60.8594H571.036V58.1526C571.036 56.5809 570.891 55.1256 570.599 53.7868C570.365 52.4479 570.044 51.1964 569.636 50.0322L563.596 35.7996C562.954 34.2861 562.283 33.0346 561.583 32.045C560.882 30.9972 559.715 30.4733 558.081 30.4733H549.503C547.752 30.4733 546.527 30.9972 545.827 32.045C545.126 33.0346 544.484 34.257 543.901 35.7123L538.299 50.0322C537.89 51.1964 537.54 52.4479 537.248 53.7868C537.015 55.1256 536.898 56.5809 536.898 58.1526ZM550.904 40.0781C551.137 39.5542 551.37 39.1759 551.604 38.943C551.896 38.7102 552.217 38.5938 552.567 38.5938H554.755C555.105 38.5938 555.397 38.7102 555.63 38.943C555.922 39.1759 556.185 39.5542 556.418 40.0781L560.532 53.3502H546.789L550.904 40.0781ZM571.036 76.7509V61.7325H536.898V76.7509H536.023V58.1526C536.023 56.5227 536.139 55.0383 536.373 53.6995C536.665 52.3024 537.044 50.9635 537.511 49.6829L543.113 35.3631C543.755 33.7332 544.484 32.3652 545.301 31.2592C546.118 30.1532 547.519 29.6002 549.503 29.6002H558.081C560.007 29.6002 561.349 30.1532 562.108 31.2592C562.925 32.3652 563.684 33.7623 564.384 35.4504L570.424 49.6829C570.891 50.9635 571.241 52.3024 571.474 53.6995C571.766 55.0383 571.912 56.5227 571.912 58.1526V76.7509H571.036ZM545.914 81.466V69.2417H561.408V81.466C561.408 82.572 561.67 83.3869 562.196 83.9108C562.779 84.3765 563.654 84.6094 564.822 84.6094H578.039C579.148 84.6094 579.936 84.3765 580.403 83.9108C580.928 83.3869 581.191 82.572 581.191 81.466V58.4145C581.191 56.6682 580.899 54.6599 580.315 52.3897C579.79 50.1195 578.944 47.4709 577.777 44.4439L570.161 24.6232C569.811 23.6336 569.257 22.9059 568.498 22.4403C567.798 21.9746 566.893 21.7417 565.784 21.7417H542.238C541.071 21.7417 540.108 21.9746 539.349 22.4403C538.649 22.9059 538.124 23.6336 537.773 24.6232L530.158 44.4439C528.991 47.4709 528.115 50.1195 527.532 52.3897C527.007 54.6599 526.744 56.6682 526.744 58.4145V81.466C526.744 82.572 526.977 83.3869 527.444 83.9108C527.97 84.3765 528.786 84.6094 529.895 84.6094H542.763C543.872 84.6094 544.659 84.3765 545.126 83.9108C545.652 83.3869 545.914 82.572 545.914 81.466ZM534.185 94.1268C533.951 94.3597 533.572 94.5634 533.047 94.7381C532.58 94.9127 532.054 95 531.471 95H518.603C517.203 95 516.182 94.6798 515.54 94.0395C514.898 93.3992 514.577 92.3805 514.577 90.9835V67.932C514.577 66.1274 514.839 64.0901 515.365 61.8199C515.948 59.4914 516.853 56.7555 518.078 53.6121L525.606 33.8787C525.781 33.3548 525.985 32.9182 526.219 32.5689C526.511 32.1615 526.802 31.8122 527.094 31.5211L527.182 31.4338L538.386 22.091C538.853 21.6835 539.407 21.3925 540.049 21.2178C540.691 20.985 541.421 20.8686 542.238 20.8686H565.784C567.127 20.8686 568.206 21.1596 569.023 21.7417C569.899 22.2656 570.54 23.1097 570.949 24.2739L578.565 44.0947C579.79 47.2381 580.665 49.974 581.191 52.3024C581.774 54.5726 582.066 56.61 582.066 58.4145V81.466C582.066 82.2227 581.949 82.8631 581.716 83.3869C581.541 83.9108 581.249 84.3474 580.84 84.6967L569.461 94.1268C569.228 94.3597 568.848 94.5634 568.323 94.7381C567.856 94.9127 567.331 95 566.747 95H553.53C552.071 95 550.991 94.6507 550.291 93.9522C549.591 93.3119 549.24 92.3223 549.24 90.9835V79.6323H546.789V81.466C546.789 82.2227 546.673 82.8631 546.439 83.3869C546.264 83.9108 545.972 84.3474 545.564 84.6967L534.185 94.1268Z" fill="black"/>
<path d="M619.153 95H604.973C603.514 95 602.463 94.6798 601.821 94.0395C601.238 93.3992 600.946 92.3805 600.946 90.9835V80.0689L587.728 62.4311C586.328 60.5683 585.394 58.9384 584.927 57.5414C584.46 56.1443 584.227 54.0196 584.227 51.1673V34.4026C584.227 33.6458 584.314 33.0055 584.49 32.4816C584.723 31.9577 585.044 31.5211 585.452 31.1719L596.744 21.6544C597.036 21.4216 597.415 21.2469 597.882 21.1305C598.407 20.9559 598.962 20.8686 599.545 20.8686H613.026C614.426 20.8686 615.448 21.1887 616.089 21.829C616.731 22.4694 617.052 23.4881 617.052 24.8851V39.205C617.052 39.7289 617.082 40.2528 617.14 40.7767C617.198 41.3006 617.373 41.8536 617.665 42.4357L618.716 43.92V34.4026C618.716 33.6458 618.803 33.0055 618.978 32.4816C619.212 31.9577 619.532 31.5211 619.941 31.1719L631.233 21.6544C631.525 21.4216 631.904 21.2469 632.371 21.1305C632.896 20.9559 633.45 20.8686 634.034 20.8686H647.077C648.477 20.8686 649.499 21.1887 650.14 21.829C650.782 22.4694 651.103 23.4881 651.103 24.8851V41.6498C651.103 44.5021 650.87 46.6268 650.403 48.0239C649.936 49.421 649.002 51.0509 647.602 52.9136L634.472 70.6388V81.466C634.472 82.2227 634.355 82.8631 634.122 83.3869C633.947 83.9108 633.655 84.3474 633.246 84.6967L621.867 94.1268C621.633 94.3597 621.254 94.5634 620.729 94.7381C620.262 94.9127 619.737 95 619.153 95ZM630.445 84.6094C631.554 84.6094 632.342 84.3765 632.809 83.9108C633.334 83.3869 633.596 82.572 633.596 81.466V70.3768L646.902 52.3897C648.185 50.5852 649.061 49.0135 649.528 47.6746C649.995 46.3358 650.228 44.3275 650.228 41.6498V24.8851C650.228 23.7791 649.965 22.9933 649.44 22.5276C648.973 22.0037 648.185 21.7417 647.077 21.7417H634.034C632.925 21.7417 632.108 22.0037 631.583 22.5276C631.116 22.9933 630.883 23.7791 630.883 24.8851V39.205C630.883 39.7871 630.854 40.3983 630.795 41.0386C630.737 41.6789 630.503 42.2901 630.095 42.8722L626.068 49.159C625.777 49.6829 625.456 50.0613 625.106 50.2941C624.814 50.527 624.434 50.6434 623.968 50.6434H623.092C622.625 50.6434 622.217 50.527 621.867 50.2941C621.575 50.0613 621.283 49.6829 620.991 49.159L616.965 42.8722C616.556 42.2901 616.323 41.6789 616.265 41.0386C616.206 40.3983 616.177 39.7871 616.177 39.205V24.8851C616.177 23.7791 615.914 22.9933 615.389 22.5276C614.922 22.0037 614.135 21.7417 613.026 21.7417H599.545C598.437 21.7417 597.62 22.0037 597.094 22.5276C596.628 22.9933 596.394 23.7791 596.394 24.8851V41.6498C596.394 44.3275 596.598 46.3358 597.007 47.6746C597.474 49.0135 598.378 50.5852 599.721 52.3897L613.113 70.2895V81.466C613.113 82.572 613.347 83.3869 613.814 83.9108C614.339 84.3765 615.156 84.6094 616.265 84.6094H630.445ZM624.405 61.8199H623.793V76.7509H622.917V61.8199H622.042C620.758 61.8199 619.591 61.5288 618.54 60.9467C617.548 60.3646 616.585 59.4332 615.652 58.1526L607.161 46.3649C606.519 45.4917 606.14 44.473 606.023 43.3088C605.906 42.1446 605.848 40.9222 605.848 39.6415V29.6002H606.723V39.6415C606.723 40.864 606.782 42.0282 606.898 43.1342C607.015 44.182 607.365 45.1425 607.949 46.0156L616.44 57.8033C617.198 58.9675 618.074 59.7825 619.066 60.2482C620.058 60.7139 621.05 60.9467 622.042 60.9467H624.405C625.514 60.9467 626.506 60.7139 627.381 60.2482C628.315 59.7243 629.22 58.9093 630.095 57.8033L638.848 46.0156C639.432 45.2589 639.782 44.3275 639.899 43.2215C640.016 42.0573 640.074 40.864 640.074 39.6415V29.6002H640.949V39.6415C640.949 40.9222 640.891 42.1446 640.774 43.3088C640.716 44.4148 640.337 45.4335 639.636 46.3649L630.883 58.1526C629.949 59.4332 628.957 60.3646 627.907 60.9467C626.915 61.5288 625.747 61.8199 624.405 61.8199Z" fill="black"/>
<path d="M696.681 95H659.392C657.991 95 656.97 94.6798 656.328 94.0395C655.686 93.3992 655.365 92.3805 655.365 90.9835V80.5928C655.365 79.8361 655.453 79.1958 655.628 78.6719C655.861 78.148 656.182 77.7114 656.591 77.3621L667.182 68.4559V48.9844H659.392C657.991 48.9844 656.97 48.6642 656.328 48.0239C655.686 47.3836 655.365 46.3649 655.365 44.9678V34.4026C655.365 33.6458 655.453 33.0055 655.628 32.4816C655.861 31.9577 656.182 31.5211 656.591 31.1719L667.883 21.6544C668.174 21.4216 668.554 21.2469 669.021 21.1305C669.546 20.9559 670.1 20.8686 670.684 20.8686H707.973C709.374 20.8686 710.395 21.1887 711.037 21.829C711.679 22.4694 712 23.4881 712 24.8851V35.4504C712 36.2071 711.883 36.8474 711.65 37.3713C711.475 37.8952 711.183 38.3318 710.775 38.6811L700.358 47.4127V67.0588H707.973C709.374 67.0588 710.395 67.379 711.037 68.0193C711.679 68.6596 712 69.6783 712 71.0754V81.466C712 82.2227 711.883 82.8631 711.65 83.3869C711.475 83.9108 711.183 84.3474 710.775 84.6967L699.395 94.1268C699.162 94.3597 698.782 94.5634 698.257 94.7381C697.79 94.9127 697.265 95 696.681 95ZM670.684 84.6094H707.973C709.082 84.6094 709.87 84.3765 710.337 83.9108C710.862 83.3869 711.125 82.572 711.125 81.466V71.0754C711.125 69.9694 710.862 69.1835 710.337 68.7178C709.87 68.1939 709.082 67.932 707.973 67.932H699.483V38.5938H707.973C709.082 38.5938 709.87 38.3609 710.337 37.8952C710.862 37.3713 711.125 36.5564 711.125 35.4504V24.8851C711.125 23.7791 710.862 22.9933 710.337 22.5276C709.87 22.0037 709.082 21.7417 707.973 21.7417H670.684C669.575 21.7417 668.758 22.0037 668.233 22.5276C667.766 22.9933 667.532 23.7791 667.532 24.8851V35.4504C667.532 36.5564 667.766 37.3713 668.233 37.8952C668.758 38.3609 669.575 38.5938 670.684 38.5938H679.35V67.932H670.684C669.575 67.932 668.758 68.1939 668.233 68.7178C667.766 69.1835 667.532 69.9694 667.532 71.0754V81.466C667.532 82.572 667.766 83.3869 668.233 83.9108C668.758 84.3765 669.575 84.6094 670.684 84.6094ZM703.247 76.7509H675.411V75.8778H688.978V30.4733H675.411V29.6002H703.247V30.4733H689.854V75.8778H703.247V76.7509Z" fill="black"/>
<path fill-rule="evenodd" clip-rule="evenodd" d="M260.032 84.6094C261.141 84.6094 261.929 84.3765 262.396 83.9108C262.921 83.3869 263.184 82.572 263.184 81.466V66.9715H273.25C281.187 66.9715 286.614 65.3998 289.532 62.2564C292.449 59.1131 293.908 55.0092 293.908 49.9449V38.7684C293.908 33.704 292.449 29.6002 289.532 26.4568C286.614 23.3134 281.187 21.7417 273.25 21.7417H246.464C245.356 21.7417 244.539 22.0037 244.014 22.5276C243.547 22.9933 243.313 23.7791 243.313 24.8851V81.466C243.313 82.572 243.547 83.3869 244.014 83.9108C244.539 84.3765 245.356 84.6094 246.464 84.6094H260.032ZM253.992 59.5496H272.025C274.767 59.5496 276.985 59.2586 278.677 58.6765C280.428 58.0944 281.77 57.3085 282.704 56.3189C283.638 55.2711 284.279 54.0487 284.63 52.6517C284.98 51.1964 285.155 49.6247 285.155 47.9366V41.4752C285.155 39.7871 284.98 38.2154 284.63 36.7601C284.279 35.3048 283.638 34.0533 282.704 33.0055C281.77 31.9577 280.428 31.1428 278.677 30.5607C276.985 29.9203 274.767 29.6002 272.025 29.6002H253.117V76.7509H253.992V59.5496Z" fill="#898121"/>
<path fill-rule="evenodd" clip-rule="evenodd" d="M193.825 84.6094C194.934 84.6094 195.722 84.3765 196.189 83.9108C196.714 83.3869 196.977 82.572 196.977 81.466V53.9614C196.977 52.8554 196.714 52.0695 196.189 51.6039C195.722 51.08 194.934 50.818 193.825 50.818H181.133C180.024 50.818 179.207 51.08 178.682 51.6039C178.215 52.0695 177.982 52.8554 177.982 53.9614V68.1066H165.989V24.8851C165.989 23.7791 165.727 22.9933 165.202 22.5276C164.735 22.0037 163.947 21.7417 162.838 21.7417H149.27C148.162 21.7417 147.345 22.0037 146.819 22.5276C146.353 22.9933 146.119 23.7791 146.119 24.8851V81.466C146.119 82.572 146.353 83.3869 146.819 83.9108C147.345 84.3765 148.162 84.6094 149.27 84.6094H193.825ZM155.66 29.6002V76.7509H187.873V58.6765H186.998V75.8778H156.536V29.6002H155.66Z" fill="#898121"/>
<path fill-rule="evenodd" clip-rule="evenodd" d="M86.1511 84.6094H123.441C124.55 84.6094 125.337 84.3765 125.804 83.9108C126.329 83.3869 126.592 82.572 126.592 81.466V71.0754C126.592 69.9694 126.329 69.1835 125.804 68.7178C125.337 68.1939 124.55 67.932 123.441 67.932H114.95V38.5938H123.441C124.55 38.5938 125.337 38.3609 125.804 37.8952C126.329 37.3713 126.592 36.5564 126.592 35.4504V24.8851C126.592 23.7791 126.329 22.9933 125.804 22.5276C125.337 22.0037 124.55 21.7417 123.441 21.7417H86.1511C85.0423 21.7417 84.2253 22.0037 83.7001 22.5276C83.2333 22.9933 82.9999 23.7791 82.9999 24.8851V35.4504C82.9999 36.5564 83.2333 37.3713 83.7001 37.8952C84.2253 38.3609 85.0423 38.5938 86.1511 38.5938H94.817V67.932H86.1511C85.0423 67.932 84.2253 68.1939 83.7001 68.7178C83.2333 69.1835 82.9999 69.9694 82.9999 71.0754V81.466C82.9999 82.572 83.2333 83.3869 83.7001 83.9108C84.2253 84.3765 85.0423 84.6094 86.1511 84.6094ZM90.878 76.7509H118.714V75.8778H105.321V30.4733H118.714V29.6002H90.878V30.4733H104.446V75.8778H90.878V76.7509Z" fill="#898121"/>
<path fill-rule="evenodd" clip-rule="evenodd" d="M39.6532 30.4733H22.759V52.3897H39.6532C42.0458 52.3897 43.9424 52.186 45.3429 51.7785C46.7435 51.3128 47.7939 50.7307 48.4942 50.0322C49.2528 49.2754 49.7196 48.4314 49.8947 47.5C50.1281 46.5104 50.2448 45.4917 50.2448 44.4439V38.8557C50.2448 36.5273 49.5737 34.5481 48.2315 32.9182C46.8893 31.2883 44.0299 30.4733 39.6532 30.4733ZM39.303 36.5855H31.8626V46.0156H39.303C40.4118 46.0156 41.2288 45.7246 41.754 45.1425C42.3375 44.5604 42.6293 43.6872 42.6293 42.523V40.0781C42.6293 38.9139 42.3375 38.0407 41.754 37.4586C41.2288 36.8765 40.4118 36.5855 39.303 36.5855Z" fill="#898121"/>
<path fill-rule="evenodd" clip-rule="evenodd" d="M45.518 53.2629H22.759V75.8778H45.4304C49.8072 75.8778 52.6666 75.1792 54.0088 73.7822C55.351 72.3269 56.0221 70.4059 56.0221 68.0193V62.4311C56.0221 59.8116 55.351 57.6287 54.0088 55.8824C52.725 54.136 49.8947 53.2629 45.518 53.2629ZM43.2421 59.4623H31.8626V69.7656H43.2421C44.3508 69.7656 45.1678 69.4746 45.693 68.8925C46.2766 68.3104 46.5684 67.4372 46.5684 66.273V62.8676C46.5684 61.7034 46.2766 60.8594 45.693 60.3355C45.1678 59.7534 44.3508 59.4623 43.2421 59.4623Z" fill="#898121"/>
<path fill-rule="evenodd" clip-rule="evenodd" d="M48.9318 84.6094C54.7091 84.6094 58.9691 83.4452 61.7119 81.1167C64.513 78.7883 65.9135 75.1792 65.9135 70.2895V62.2564C65.9135 58.007 65.009 54.7763 63.2 52.5643C61.3909 50.3523 58.619 49.0717 54.8842 48.7224C56.6349 47.9657 57.9187 46.8306 58.7357 45.3171C59.611 43.7454 60.0487 41.7371 60.0487 39.2923V35.1011C60.0487 30.5607 58.6773 27.2135 55.9346 25.0597C53.1918 22.8477 48.961 21.7417 43.2421 21.7417H15.3186C14.2098 21.7417 13.3928 22.0037 12.8676 22.5276C12.4007 22.9933 12.1673 23.7791 12.1673 24.8851V81.466C12.1673 82.572 12.4007 83.3869 12.8676 83.9108C13.3928 84.3765 14.2098 84.6094 15.3186 84.6094H48.9318ZM21.8836 76.7509H45.4304C47.8814 76.7509 49.8655 76.5472 51.3828 76.1397C52.9001 75.674 54.038 75.0628 54.7966 74.3061C55.6136 73.5493 56.168 72.6471 56.4598 71.5993C56.7516 70.4933 56.8975 69.2999 56.8975 68.0193V62.4311C56.8975 60.9758 56.7516 59.6369 56.4598 58.4145C56.2264 57.1921 55.7012 56.1443 54.8842 55.2711C54.0672 54.3398 52.9001 53.6412 51.3828 53.1756C49.8655 52.6517 47.9106 52.3897 45.518 52.3897C48.0273 51.7494 49.5737 50.7016 50.1573 49.2463C50.7992 47.7911 51.1202 46.1903 51.1202 44.4439V38.8557C51.1202 37.5751 50.9743 36.3817 50.6825 35.2757C50.3907 34.1697 49.8363 33.2092 49.0194 32.3943C48.2024 31.5211 47.0352 30.8517 45.518 30.386C44.0007 29.8621 42.0458 29.6002 39.6532 29.6002H21.8836V76.7509Z" fill="#898121"/>
<path fill-rule="evenodd" clip-rule="evenodd" d="M111.799 18.2491C112.908 18.2491 113.695 18.0162 114.162 17.5506C114.687 17.0267 114.95 16.2117 114.95 15.1057V4.01654C114.95 2.91054 114.687 2.12469 114.162 1.65901C113.695 1.13511 112.908 0.873161 111.799 0.873161H97.9683C96.8595 0.873161 96.0425 1.13511 95.5173 1.65901C95.0505 2.12469 94.817 2.91054 94.817 4.01654V15.1057C94.817 16.2117 95.0505 17.0267 95.5173 17.5506C96.0425 18.0162 96.8595 18.2491 97.9683 18.2491H111.799ZM104.446 12.1369H105.321V6.98529H104.446V12.1369Z" fill="#898121"/>
<path fill-rule="evenodd" clip-rule="evenodd" d="M253.992 58.6765H272.025C274.592 58.6765 276.664 58.4145 278.24 57.8906C279.874 57.3667 281.128 56.6391 282.004 55.7077C282.879 54.7181 283.462 53.583 283.754 52.3024C284.104 50.9635 284.279 49.5083 284.279 47.9366V41.4752C284.279 39.9035 284.104 38.4482 283.754 37.1094C283.462 35.7705 282.879 34.6063 282.004 33.6167C281.128 32.6271 279.874 31.8704 278.24 31.3465C276.664 30.7644 274.592 30.4733 272.025 30.4733H253.992V58.6765ZM270.887 38.0699H263.009V51.2546H270.887C272.579 51.2546 273.688 50.818 274.213 49.9449C274.738 49.0717 275.001 48.0821 275.001 46.9761V42.3483C275.001 41.2423 274.738 40.2528 274.213 39.3796C273.688 38.5064 272.579 38.0699 270.887 38.0699Z" fill="#898121"/>
<path fill-rule="evenodd" clip-rule="evenodd" d="M359.491 84.6094C360.6 84.6094 361.388 84.3765 361.855 83.9108C362.38 83.3869 362.643 82.572 362.643 81.466V53.9614C362.643 52.8554 362.38 52.0695 361.855 51.6039C361.388 51.08 360.6 50.818 359.491 50.818H346.799C345.69 50.818 344.873 51.08 344.348 51.6039C343.881 52.0695 343.648 52.8554 343.648 53.9614V68.1066H331.655V24.8851C331.655 23.7791 331.393 22.9933 330.868 22.5276C330.401 22.0037 329.613 21.7417 328.504 21.7417H314.936C313.828 21.7417 313.011 22.0037 312.485 22.5276C312.019 22.9933 311.785 23.7791 311.785 24.8851V81.466C311.785 82.572 312.019 83.3869 312.485 83.9108C313.011 84.3765 313.828 84.6094 314.936 84.6094H359.491ZM321.326 29.6002V76.7509H353.539V58.6765H352.664V75.8778H322.202V29.6002H321.326Z" fill="#898121"/>
<path fill-rule="evenodd" clip-rule="evenodd" d="M399.225 81.466V69.2417H414.719V81.466C414.719 82.572 414.982 83.3869 415.507 83.9108C416.09 84.3765 416.966 84.6094 418.133 84.6094H431.35C432.459 84.6094 433.247 84.3765 433.714 83.9108C434.239 83.3869 434.502 82.572 434.502 81.466V58.4145C434.502 56.6682 434.21 54.6599 433.626 52.3897C433.101 50.1195 432.255 47.4709 431.088 44.4439L423.472 24.6232C423.122 23.6336 422.568 22.9059 421.809 22.4403C421.109 21.9746 420.204 21.7417 419.096 21.7417H395.549C394.382 21.7417 393.419 21.9746 392.66 22.4403C391.96 22.9059 391.435 23.6336 391.085 24.6232L383.469 44.4439C382.302 47.4709 381.427 50.1195 380.843 52.3897C380.318 54.6599 380.055 56.6682 380.055 58.4145V81.466C380.055 82.572 380.289 83.3869 380.756 83.9108C381.281 84.3765 382.098 84.6094 383.207 84.6094H396.074C397.183 84.6094 397.971 84.3765 398.438 83.9108C398.963 83.3869 399.225 82.572 399.225 81.466ZM424.348 61.7325V76.7509H425.223V58.1526C425.223 56.5227 425.077 55.0383 424.785 53.6995C424.552 52.3024 424.202 50.9635 423.735 49.6829L417.695 35.4504C416.995 33.7623 416.236 32.3652 415.419 31.2592C414.661 30.1532 413.318 29.6002 411.393 29.6002H402.814C400.83 29.6002 399.43 30.1532 398.613 31.2592C397.796 32.3652 397.066 33.7332 396.424 35.3631L390.822 49.6829C390.355 50.9635 389.976 52.3024 389.684 53.6995C389.451 55.0383 389.334 56.5227 389.334 58.1526V76.7509H390.209V61.7325H424.348Z" fill="#898121"/>
<path fill-rule="evenodd" clip-rule="evenodd" d="M390.209 58.1526V60.8594H424.348V58.1526C424.348 56.5809 424.202 55.1256 423.91 53.7868C423.677 52.4479 423.356 51.1964 422.947 50.0322L416.907 35.7996C416.265 34.2861 415.594 33.0346 414.894 32.045C414.194 30.9972 413.027 30.4733 411.393 30.4733H402.814C401.064 30.4733 399.838 30.9972 399.138 32.045C398.438 33.0346 397.796 34.257 397.212 35.7123L391.61 50.0322C391.201 51.1964 390.851 52.4479 390.559 53.7868C390.326 55.1256 390.209 56.5809 390.209 58.1526ZM404.915 38.943C404.682 39.1759 404.448 39.5542 404.215 40.0781L400.101 53.3502H413.844L409.729 40.0781C409.496 39.5542 409.233 39.1759 408.942 38.943C408.708 38.7102 408.416 38.5938 408.066 38.5938H405.878C405.528 38.5938 405.207 38.7102 404.915 38.943Z" fill="#898121"/>
<path fill-rule="evenodd" clip-rule="evenodd" d="M470.748 84.6094C471.857 84.6094 472.644 84.3765 473.111 83.9108C473.637 83.3869 473.899 82.572 473.899 81.466V61.4706H485.454C486.387 61.4706 487.088 61.7325 487.555 62.2564C488.021 62.7803 488.255 63.508 488.255 64.4393V81.466C488.255 82.572 488.488 83.3869 488.955 83.9108C489.48 84.3765 490.297 84.6094 491.406 84.6094H504.886C505.995 84.6094 506.783 84.3765 507.25 83.9108C507.775 83.3869 508.038 82.572 508.038 81.466V56.8428C508.038 53.3502 507.046 50.5561 505.061 48.4605C503.136 46.3067 500.539 45.1425 497.271 44.9678L506.199 24.6232C506.608 23.6918 506.637 22.9933 506.287 22.5276C505.937 22.0037 505.266 21.7417 504.274 21.7417H490.793C489.685 21.7417 488.78 21.9746 488.08 22.4403C487.379 22.8477 486.825 23.5754 486.417 24.6232L477.401 44.9678H473.899V24.8851C473.899 23.7791 473.637 22.9933 473.111 22.5276C472.644 22.0037 471.857 21.7417 470.748 21.7417H457.18C456.071 21.7417 455.254 22.0037 454.729 22.5276C454.262 22.9933 454.029 23.7791 454.029 24.8851V81.466C454.029 82.572 454.262 83.3869 454.729 83.9108C455.254 84.3765 456.071 84.6094 457.18 84.6094H470.748ZM463.57 76.7509H464.445V53.6995H487.992C491.202 53.6995 493.624 54.2816 495.258 55.4458C496.892 56.61 497.709 58.5892 497.709 61.3833V76.7509H498.584V61.3833C498.584 58.3563 497.709 56.1734 495.958 54.8346C494.207 53.4957 491.552 52.8263 487.992 52.8263H484.403L494.47 29.6002H493.507L483.44 52.8263H464.445V29.6002H463.57V76.7509Z" fill="#898121"/>
<path fill-rule="evenodd" clip-rule="evenodd" d="M536.898 58.1526V60.8594H571.036V58.1526C571.036 56.5809 570.891 55.1256 570.599 53.7868C570.365 52.4479 570.044 51.1964 569.636 50.0322L563.596 35.7996C562.954 34.2861 562.283 33.0346 561.583 32.045C560.882 30.9972 559.715 30.4733 558.081 30.4733H549.503C547.752 30.4733 546.527 30.9972 545.827 32.045C545.126 33.0346 544.484 34.257 543.901 35.7123L538.299 50.0322C537.89 51.1964 537.54 52.4479 537.248 53.7868C537.015 55.1256 536.898 56.5809 536.898 58.1526ZM551.604 38.943C551.37 39.1759 551.137 39.5542 550.904 40.0781L546.789 53.3502H560.532L556.418 40.0781C556.185 39.5542 555.922 39.1759 555.63 38.943C555.397 38.7102 555.105 38.5938 554.755 38.5938H552.567C552.217 38.5938 551.896 38.7102 551.604 38.943Z" fill="#898121"/>
<path fill-rule="evenodd" clip-rule="evenodd" d="M545.914 81.466V69.2417H561.408V81.466C561.408 82.572 561.67 83.3869 562.196 83.9108C562.779 84.3765 563.654 84.6094 564.822 84.6094H578.039C579.148 84.6094 579.936 84.3765 580.403 83.9108C580.928 83.3869 581.191 82.572 581.191 81.466V58.4145C581.191 56.6682 580.899 54.6599 580.315 52.3897C579.79 50.1195 578.944 47.4709 577.777 44.4439L570.161 24.6232C569.811 23.6336 569.257 22.9059 568.498 22.4403C567.798 21.9746 566.893 21.7417 565.784 21.7417H542.238C541.071 21.7417 540.108 21.9746 539.349 22.4403C538.649 22.9059 538.124 23.6336 537.773 24.6232L530.158 44.4439C528.991 47.4709 528.115 50.1195 527.532 52.3897C527.007 54.6599 526.744 56.6682 526.744 58.4145V81.466C526.744 82.572 526.977 83.3869 527.444 83.9108C527.97 84.3765 528.786 84.6094 529.895 84.6094H542.763C543.872 84.6094 544.659 84.3765 545.126 83.9108C545.652 83.3869 545.914 82.572 545.914 81.466ZM571.036 61.7325V76.7509H571.912V58.1526C571.912 56.5227 571.766 55.0383 571.474 53.6995C571.241 52.3024 570.891 50.9635 570.424 49.6829L564.384 35.4504C563.684 33.7623 562.925 32.3652 562.108 31.2592C561.349 30.1532 560.007 29.6002 558.081 29.6002H549.503C547.519 29.6002 546.118 30.1532 545.301 31.2592C544.484 32.3652 543.755 33.7332 543.113 35.3631L537.511 49.6829C537.044 50.9635 536.665 52.3024 536.373 53.6995C536.139 55.0383 536.023 56.5227 536.023 58.1526V76.7509H536.898V61.7325H571.036Z" fill="#898121"/>
<path fill-rule="evenodd" clip-rule="evenodd" d="M630.445 84.6094C631.554 84.6094 632.342 84.3765 632.809 83.9108C633.334 83.3869 633.596 82.572 633.596 81.466V70.3768L646.902 52.3897C648.185 50.5852 649.061 49.0135 649.528 47.6746C649.995 46.3358 650.228 44.3275 650.228 41.6498V24.8851C650.228 23.7791 649.965 22.9933 649.44 22.5276C648.973 22.0037 648.185 21.7417 647.077 21.7417H634.034C632.925 21.7417 632.108 22.0037 631.583 22.5276C631.116 22.9933 630.883 23.7791 630.883 24.8851V39.205C630.883 39.7871 630.854 40.3983 630.795 41.0386C630.737 41.6789 630.503 42.2901 630.095 42.8722L626.068 49.159C625.777 49.6829 625.456 50.0613 625.106 50.2941C624.814 50.527 624.434 50.6434 623.968 50.6434H623.092C622.625 50.6434 622.217 50.527 621.867 50.2941C621.575 50.0613 621.283 49.6829 620.991 49.159L616.965 42.8722C616.556 42.2901 616.323 41.6789 616.265 41.0386C616.206 40.3983 616.177 39.7871 616.177 39.205V24.8851C616.177 23.7791 615.914 22.9933 615.389 22.5276C614.922 22.0037 614.135 21.7417 613.026 21.7417H599.545C598.437 21.7417 597.62 22.0037 597.094 22.5276C596.628 22.9933 596.394 23.7791 596.394 24.8851V41.6498C596.394 44.3275 596.598 46.3358 597.007 47.6746C597.474 49.0135 598.378 50.5852 599.721 52.3897L613.113 70.2895V81.466C613.113 82.572 613.347 83.3869 613.814 83.9108C614.339 84.3765 615.156 84.6094 616.265 84.6094H630.445ZM623.793 61.8199H624.405C625.747 61.8199 626.915 61.5288 627.907 60.9467C628.957 60.3646 629.949 59.4332 630.883 58.1526L639.636 46.3649C640.337 45.4335 640.716 44.4148 640.774 43.3088C640.891 42.1446 640.949 40.9222 640.949 39.6415V29.6002H640.074V39.6415C640.074 40.864 640.016 42.0573 639.899 43.2215C639.782 44.3275 639.432 45.2589 638.848 46.0156L630.095 57.8033C629.22 58.9093 628.315 59.7243 627.381 60.2482C626.506 60.7139 625.514 60.9467 624.405 60.9467H622.042C621.05 60.9467 620.058 60.7139 619.066 60.2482C618.074 59.7825 617.198 58.9675 616.44 57.8033L607.949 46.0156C607.365 45.1425 607.015 44.182 606.898 43.1342C606.782 42.0282 606.723 40.864 606.723 39.6415V29.6002H605.848V39.6415C605.848 40.9222 605.906 42.1446 606.023 43.3088C606.14 44.473 606.519 45.4917 607.161 46.3649L615.652 58.1526C616.585 59.4332 617.548 60.3646 618.54 60.9467C619.591 61.5288 620.758 61.8199 622.042 61.8199H622.917V76.7509H623.793V61.8199Z" fill="#898121"/>
<path fill-rule="evenodd" clip-rule="evenodd" d="M670.684 84.6094H707.973C709.082 84.6094 709.87 84.3765 710.337 83.9108C710.862 83.3869 711.125 82.572 711.125 81.466V71.0754C711.125 69.9694 710.862 69.1835 710.337 68.7178C709.87 68.1939 709.082 67.932 707.973 67.932H699.483V38.5938H707.973C709.082 38.5938 709.87 38.3609 710.337 37.8952C710.862 37.3713 711.125 36.5564 711.125 35.4504V24.8851C711.125 23.7791 710.862 22.9933 710.337 22.5276C709.87 22.0037 709.082 21.7417 707.973 21.7417H670.684C669.575 21.7417 668.758 22.0037 668.233 22.5276C667.766 22.9933 667.532 23.7791 667.532 24.8851V35.4504C667.532 36.5564 667.766 37.3713 668.233 37.8952C668.758 38.3609 669.575 38.5938 670.684 38.5938H679.35V67.932H670.684C669.575 67.932 668.758 68.1939 668.233 68.7178C667.766 69.1835 667.532 69.9694 667.532 71.0754V81.466C667.532 82.572 667.766 83.3869 668.233 83.9108C668.758 84.3765 669.575 84.6094 670.684 84.6094ZM675.411 76.7509H703.247V75.8778H689.854V30.4733H703.247V29.6002H675.411V30.4733H688.978V75.8778H675.411V76.7509Z" fill="#898121"/>
</svg>
